<?xml version="1.0" encoding="UTF-8" standalone="no"?>
<!-- Generator: Adobe Illustrator 19.0.0, SVG Export Plug-In . SVG Version: 6.00 Build 0)  -->

<svg
   xmlns:dc="http://purl.org/dc/elements/1.1/"
   xmlns:cc="http://creativecommons.org/ns#"
   xmlns:rdf="http://www.w3.org/1999/02/22-rdf-syntax-ns#"
   xmlns:svg="http://www.w3.org/2000/svg"
   xmlns="http://www.w3.org/2000/svg"
   xmlns:sodipodi="http://sodipodi.sourceforge.net/DTD/sodipodi-0.dtd"
   xmlns:inkscape="http://www.inkscape.org/namespaces/inkscape"
   version="1.1"
   id="Capa_1"
   x="0px"
   y="0px"
   viewBox="0 0 54.81201 54.81201"
   xml:space="preserve"
   sodipodi:docname="user.svg"
   inkscape:version="0.92.1 r15371"
   width="54.812012"
   height="54.812012"><metadata
     id="metadata39"><rdf:RDF><cc:Work
         rdf:about=""><dc:format>image/svg+xml</dc:format><dc:type
           rdf:resource="http://purl.org/dc/dcmitype/StillImage" /><dc:title></dc:title></cc:Work></rdf:RDF></metadata><defs
     id="defs37" /><sodipodi:namedview
     pagecolor="#ffffff"
     bordercolor="#666666"
     borderopacity="1"
     objecttolerance="10"
     gridtolerance="10"
     guidetolerance="10"
     inkscape:pageopacity="0"
     inkscape:pageshadow="2"
     inkscape:window-width="1347"
     inkscape:window-height="621"
     id="namedview35"
     showgrid="false"
     inkscape:pagecheckerboard="true"
     inkscape:zoom="1.1320923"
     inkscape:cx="80.081198"
     inkscape:cy="138.24022"
     inkscape:window-x="0"
     inkscape:window-y="0"
     inkscape:window-maximized="0"
     inkscape:current-layer="Capa_1" /><path
     d="m 45.257813,9.5340916 c -9.933627,-9.93380145 -26.097132,-9.93380145 -36.0307578,0 C 5.7417569,13.01939 3.3576801,17.398005 2.3323294,22.196748 1.3341052,26.869331 1.6610812,31.710414 3.2778359,36.196347 3.4720808,36.735032 4.0664288,37.014313 4.604932,36.820237 5.1437995,36.625984 5.4230739,36.031825 5.2288214,35.493134 3.7434139,31.37151 3.4430594,26.923594 4.3603896,22.629839 5.3017523,18.223568 7.4917459,14.20201 10.693445,11.000312 c 9.125174,-9.1251684 23.972816,-9.1251684 33.097971,0 4.345594,4.345775 6.778237,10.122344 6.849613,16.265992 0.07143,6.132407 -2.214019,11.955115 -6.434837,16.395253 -0.04995,0.05255 -0.09938,0.105412 -0.148802,0.158303 -0.08743,0.0935 -0.174727,0.187163 -0.265974,0.278416 -9.125155,9.125163 -23.972797,9.125163 -33.097971,0 -0.04852,-0.04852 -0.09591,-0.09799 -0.142747,-0.147422 -0.002,-0.09574 -0.0046,-0.190096 -0.0046,-0.283073 0,-0.208769 0.0039,-0.416674 0.01158,-0.623889 0.0026,-0.0693 0.0074,-0.137914 0.01125,-0.20704 0.0065,-0.137738 0.01314,-0.275476 0.02309,-0.412518 0.0065,-0.08172 0.01489,-0.162636 0.02218,-0.244035 0.01086,-0.123566 0.02107,-0.247131 0.03454,-0.370007 0.0095,-0.08678 0.02198,-0.172822 0.03285,-0.259235 0.0147,-0.116652 0.02868,-0.233655 0.04592,-0.349793 0.01314,-0.08844 0.02875,-0.176106 0.04319,-0.264074 0.01847,-0.113192 0.03642,-0.226389 0.0573,-0.338891 0.01639,-0.08899 0.03525,-0.177147 0.05327,-0.265642 0.02224,-0.110427 0.04416,-0.221036 0.06875,-0.330774 0.0199,-0.08899 0.04195,-0.177485 0.06322,-0.265981 0.02589,-0.108007 0.05171,-0.216015 0.0797,-0.323163 0.02328,-0.08882 0.04852,-0.176978 0.07307,-0.265285 0.02953,-0.105776 0.05893,-0.211703 0.09057,-0.316777 0.02654,-0.08817 0.05476,-0.175592 0.08283,-0.263047 0.03324,-0.103858 0.06636,-0.207898 0.101445,-0.310904 0.02972,-0.08698 0.06082,-0.173335 0.09194,-0.259748 0.03682,-0.10231 0.07381,-0.204614 0.112502,-0.306241 0.03284,-0.08586 0.06691,-0.170923 0.101101,-0.25612 0.04032,-0.100404 0.08089,-0.200815 0.123044,-0.300367 0.03597,-0.08467 0.07298,-0.168673 0.110271,-0.25266 0.04371,-0.09869 0.08798,-0.197017 0.133595,-0.294664 0.03883,-0.08311 0.07859,-0.165738 0.118895,-0.248178 0.04742,-0.09695 0.09522,-0.193732 0.144307,-0.289649 0.04163,-0.08117 0.08402,-0.162095 0.127026,-0.242636 0.05079,-0.0954 0.102479,-0.190454 0.155189,-0.284978 0.04443,-0.07952 0.08936,-0.158662 0.134973,-0.237291 0.05431,-0.0935 0.1094,-0.186473 0.16557,-0.279105 0.04721,-0.07777 0.09488,-0.155195 0.14326,-0.232282 0.05769,-0.09157 0.116314,-0.182668 0.175767,-0.273056 0.04975,-0.07583 0.09989,-0.151384 0.15087,-0.22639 0.06101,-0.08992 0.123397,-0.178701 0.186305,-0.267359 0.05236,-0.07381 0.104722,-0.147416 0.158304,-0.220171 0.06446,-0.0878 0.13031,-0.174728 0.196489,-0.261135 0.05476,-0.07151 0.1094,-0.143103 0.165407,-0.213784 0.06792,-0.08586 0.137387,-0.170753 0.207033,-0.255255 0.05692,-0.06912 0.113719,-0.138252 0.171781,-0.206526 0.07151,-0.08402 0.144659,-0.166772 0.217927,-0.249381 0.05906,-0.06672 0.117868,-0.133588 0.178012,-0.19926 0.07501,-0.08192 0.151559,-0.162286 0.228301,-0.242651 0.0612,-0.06432 0.122006,-0.128743 0.184223,-0.19217 0.07859,-0.07988 0.158994,-0.15796 0.239183,-0.236419 0.0629,-0.0614 0.125303,-0.123397 0.189238,-0.183879 0.08264,-0.07814 0.167124,-0.154337 0.251281,-0.230721 0.06432,-0.05828 0.127722,-0.117179 0.192874,-0.174551 0.08697,-0.07657 0.176106,-0.15087 0.264764,-0.2257 0.06498,-0.05476 0.129269,-0.110433 0.195117,-0.164353 0.09176,-0.07502 0.185785,-0.14776 0.27945,-0.221049 0.06534,-0.05099 0.129615,-0.103169 0.195638,-0.15329 0.09868,-0.07482 0.199436,-0.147071 0.300023,-0.219651 0.06341,-0.04592 0.125633,-0.09298 0.189927,-0.138082 0.110954,-0.07795 0.224497,-0.153128 0.337701,-0.228647 0.05587,-0.03708 0.110421,-0.07574 0.166584,-0.112333 0.147598,-0.09592 0.297778,-0.18873 0.448999,-0.280322 0.02348,-0.01418 0.04631,-0.02934 0.06995,-0.04352 0.174897,-0.104723 0.352213,-0.20635 0.531603,-0.305193 0.0614,-0.03369 0.12443,-0.06534 0.18648,-0.09834 0.119058,-0.06361 0.237791,-0.127709 0.358944,-0.188543 0.07759,-0.03903 0.157093,-0.07575 0.235384,-0.113548 0.09885,-0.04787 0.197362,-0.09626 0.297427,-0.142409 1.879435,1.795271 4.386557,2.811646 6.988912,2.811646 2.602349,0 5.109654,-1.016537 6.989088,-2.81199 3.668832,1.697975 6.671608,4.744654 8.301843,8.44961 0.230532,0.523992 0.842162,0.76231 1.366668,0.53159 0.524174,-0.230708 0.762148,-0.842676 0.531426,-1.366675 -1.783172,-4.052667 -4.887575,-7.291179 -8.817015,-9.246131 1.140096,-1.672395 1.756897,-3.647232 1.756897,-5.685146 0,-5.58508 -4.543827,-10.128913 -10.128907,-10.128913 -0.572559,0 -1.036934,0.464376 -1.036934,1.036935 0,0.572559 0.464375,1.036921 1.036934,1.036921 4.441692,0 8.055044,3.613533 8.055044,8.055057 0,1.986069 -0.738115,3.898519 -2.078182,5.384609 -1.61e-4,1.76e-4 -3.37e-4,3.52e-4 -5.13e-4,5.14e-4 -1.530169,1.696764 -3.708403,2.669926 -5.976525,2.669926 -2.268108,0 -4.44653,-0.973162 -5.976523,-2.669926 -1.76e-4,-3.38e-4 -5.14e-4,-5.14e-4 -5.6e-4,-5.59e-4 -1.33989,-1.486611 -2.077843,-3.39854 -2.077843,-5.384265 0,-2.167873 0.848732,-4.201637 2.389963,-5.726278 0.407168,-0.402843 0.410628,-1.059389 0.0074,-1.466379 -0.402678,-0.407354 -1.059231,-0.41045 -1.466389,-0.0083 -1.937854,1.916586 -3.005202,4.473843 -3.005202,7.199927 0,2.035838 0.615239,4.00929 1.753449,5.680833 -0.01021,0.0045 -0.0201,0.0106 -0.03012,0.01574 -0.08089,0.04053 -0.159859,0.08329 -0.240055,0.124607 -0.122876,0.06361 -0.246091,0.12685 -0.367243,0.193042 -0.08568,0.04664 -0.16953,0.09574 -0.254389,0.143605 -0.113198,0.06413 -0.226566,0.127891 -0.338209,0.194083 -0.08661,0.05151 -0.171793,0.104737 -0.257505,0.15744 -0.107156,0.06599 -0.214299,0.131864 -0.319899,0.199787 -0.08623,0.05541 -0.170916,0.112502 -0.25612,0.169186 -0.102486,0.06829 -0.204789,0.136877 -0.305727,0.207044 -0.08485,0.05906 -0.168665,0.119423 -0.25249,0.179735 -0.0985,0.07105 -0.196666,0.142401 -0.293624,0.215164 -0.08311,0.06237 -0.16521,0.125633 -0.24713,0.189237 -0.09505,0.07382 -0.189413,0.148112 -0.282735,0.223631 -0.08089,0.06534 -0.161075,0.131521 -0.240919,0.198058 -0.09175,0.07675 -0.182838,0.154323 -0.273063,0.232789 -0.07832,0.06792 -0.156048,0.13636 -0.233129,0.205661 -0.08899,0.07998 -0.176795,0.160893 -0.264073,0.242461 -0.07537,0.07031 -0.150525,0.140854 -0.224835,0.212582 -0.08624,0.08329 -0.171098,0.1678 -0.255789,0.252659 -0.07224,0.07243 -0.144476,0.144658 -0.215332,0.218097 -0.08384,0.08698 -0.166083,0.175416 -0.248165,0.263899 -0.06866,0.07399 -0.137738,0.147591 -0.205146,0.222773 -0.08209,0.0913 -0.161934,0.184398 -0.242117,0.277206 -0.06445,0.07464 -0.129445,0.148625 -0.192705,0.224152 -0.08135,0.09729 -0.160202,0.196496 -0.23952,0.295352 -0.05893,0.07363 -0.119085,0.1462 -0.176979,0.220685 -0.08329,0.107156 -0.163832,0.21638 -0.24471,0.325253 -0.0508,0.06847 -0.103001,0.135663 -0.152776,0.204795 -0.102317,0.141712 -0.201336,0.285499 -0.299495,0.429982 -0.02576,0.03799 -0.05301,0.075 -0.07859,0.113198 -0.122187,0.182493 -0.240907,0.367067 -0.35653,0.553723 -0.03994,0.06439 -0.0774,0.13031 -0.116477,0.195117 -0.07482,0.124255 -0.150004,0.248335 -0.222077,0.374333 -0.04494,0.07859 -0.08744,0.158642 -0.131169,0.237966 -0.06316,0.11407 -0.126505,0.227782 -0.187,0.343223 -0.04494,0.08559 -0.08743,0.172139 -0.131169,0.258371 -0.05633,0.111298 -0.112853,0.222421 -0.166948,0.33493 -0.04306,0.08955 -0.08403,0.18008 -0.12564,0.270116 -0.05119,0.111131 -0.102479,0.222078 -0.151566,0.334241 -0.04039,0.09246 -0.079149,0.185791 -0.1180373,0.278944 -0.04683,0.111812 -0.093328,0.223625 -0.1379136,0.336302 -0.037529,0.09471 -0.073445,0.189934 -0.1093931,0.285154 -0.042537,0.113029 -0.084488,0.226227 -0.1249508,0.340121 -0.034211,0.09661 -0.06737,0.193726 -0.1002352,0.291027 -0.038569,0.114232 -0.07602,0.228816 -0.1123394,0.344094 -0.030895,0.09799 -0.060814,0.196328 -0.090193,0.294826 -0.034537,0.116314 -0.067917,0.232966 -0.1002287,0.350138 -0.027317,0.09886 -0.054114,0.197881 -0.07989,0.297434 -0.030635,0.118381 -0.059643,0.237277 -0.087982,0.356523 -0.023675,0.09955 -0.04722,0.198923 -0.069119,0.29882 -0.026602,0.120789 -0.051382,0.242292 -0.075559,0.363952 -0.019903,0.09955 -0.040131,0.199098 -0.058407,0.299158 -0.022634,0.124086 -0.043057,0.248867 -0.06322,0.373812 -0.015935,0.09851 -0.032651,0.196847 -0.047025,0.29569 -0.018797,0.128932 -0.034667,0.258553 -0.050992,0.388161 -0.011838,0.09609 -0.025041,0.192008 -0.035642,0.288445 -0.014894,0.135839 -0.026342,0.272536 -0.038179,0.409247 -0.00826,0.09111 -0.017496,0.181796 -0.024001,0.273401 -0.011057,0.1526 -0.018342,0.305889 -0.025756,0.459354 -0.0039,0.07621 -0.0093,0.15191 -0.012033,0.228302 -0.00826,0.230201 -0.013008,0.46126 -0.013008,0.693184 0,0.250422 0.00826,0.487193 0.018667,0.748665 0.00195,0.06048 0.010862,0.119246 0.023024,0.176627 6.504e-4,0.0045 0.00195,0.0092 0.0026,0.01353 0.012813,0.05652 0.03083,0.110778 0.052359,0.163318 0.00195,0.0045 0.0039,0.01041 0.00651,0.01554 0.022309,0.05184 0.048976,0.10127 0.078966,0.148276 0.0039,0.0052 0.00735,0.01177 0.011252,0.01749 0.030959,0.04611 0.065347,0.08955 0.1028304,0.129959 0.0026,0.0026 0.00455,0.0065 0.00735,0.0095 l 0.136873,0.145699 c 0.1033506,0.110596 0.2066948,0.220861 0.3145399,0.32853 4.9669008,4.966901 11.4910928,7.450342 18.0154598,7.450342 6.524367,0 13.048565,-2.483441 18.01546,-7.450342 0.107839,-0.107669 0.211189,-0.218103 0.314533,-0.32853 l 0.136873,-0.145699 c 4.59513,-4.834005 7.083071,-11.172425 7.005476,-17.848182 -0.07721,-6.689065 -2.72557,-12.978048 -7.45639,-17.7088744 z"
     id="path2"
     style="fill:#f4981b;fill-opacity:1;stroke-width:0.17282179"
     inkscape:connector-curvature="0" /><g
     id="g4"
     transform="translate(0,-240)" /><g
     id="g6"
     transform="translate(0,-240)" /><g
     id="g8"
     transform="translate(0,-240)" /><g
     id="g10"
     transform="translate(0,-240)" /><g
     id="g12"
     transform="translate(0,-240)" /><g
     id="g14"
     transform="translate(0,-240)" /><g
     id="g16"
     transform="translate(0,-240)" /><g
     id="g18"
     transform="translate(0,-240)" /><g
     id="g20"
     transform="translate(0,-240)" /><g
     id="g22"
     transform="translate(0,-240)" /><g
     id="g24"
     transform="translate(0,-240)" /><g
     id="g26"
     transform="translate(0,-240)" /><g
     id="g28"
     transform="translate(0,-240)" /><g
     id="g30"
     transform="translate(0,-240)" /><g
     id="g32"
     transform="translate(0,-240)" /></svg>